name Walk4.mot
datacolumns 19
datarows 12
range 2.05000000 2.10500000
endheader

                time	   L_ground_force_vx	   L_ground_force_vy	   L_ground_force_vz	   L_ground_force_px	   L_ground_force_py	   L_ground_force_pz	   R_ground_force_vx	   R_ground_force_vy	   R_ground_force_vz	   R_ground_force_px	   R_ground_force_py	   R_ground_force_pz	   L_ground_torque_x	   L_ground_torque_y	   L_ground_torque_z	   R_ground_torque_x	   R_ground_torque_y	   R_ground_torque_z	
          2.05000000	         -0.00000001	         -0.00000002	          0.00000000	          0.00000000	          0.00000000	         -0.00000000	         -1.38855688	         -5.77081311	         -0.25567466	          0.00242198	          0.00000000	          0.00054214	          0.00000000	         -0.00000000	          0.00000000	          0.00000000	          0.28460114	          0.00000000	
          2.05500000	         -0.00000000	         -0.00000001	          0.00000000	          0.00000000	          0.00000000	         -0.00000000	         -1.28241923	         -5.34051618	         -0.25889893	         -0.01097521	          0.00000000	         -0.00100608	          0.00000000	         -0.00000000	          0.00000000	          0.00000000	          0.25416892	          0.00000000	
          2.06000000	         -0.00000000	         -0.00000001	          0.00000000	          0.00000000	          0.00000000	         -0.00000000	         -1.11293136	         -4.64220484	         -0.24049081	         -0.01869856	          0.00000000	         -0.00191935	          0.00000000	         -0.00000000	          0.00000000	          0.00000000	          0.21455164	          0.00000000	
          2.06500000	         -0.00000000	         -0.00000000	          0.00000000	          0.00000000	          0.00000000	         -0.00000000	         -0.91622266	         -3.82724904	         -0.20966613	         -0.02217256	          0.00000000	         -0.00235322	          0.00000000	         -0.00000000	          0.00000000	          0.00000000	          0.17217740	          0.00000000	
          2.07000000	         -0.00000000	         -0.00000000	          0.00000000	          0.00000000	          0.00000000	         -0.00000000	         -0.71761504	         -3.00194454	         -0.17331680	         -0.02264679	          0.00000000	         -0.00244534	          0.00000000	         -0.00000000	          0.00000000	          0.00000000	          0.13138648	          0.00000000	
          2.07500000	         -0.00000000	         -0.00000000	          0.00000000	          0.00000000	          0.00000000	         -0.00000000	         -0.53349715	         -2.23527524	         -0.13629942	         -0.02115982	          0.00000000	         -0.00231101	          0.00000000	         -0.00000000	          0.00000000	          0.00000000	          0.09483696	          0.00000000	
          2.08000000	          0.00000000	          0.00000000	         -0.00000000	          0.00000000	          0.00000000	         -0.00000000	         -0.37323274	         -1.56684183	         -0.10178125	         -0.01853276	          0.00000000	         -0.00204210	          0.00000000	         -0.00000000	          0.00000000	          0.00000000	          0.06389801	          0.00000000	
          2.08500000	          0.00000000	          0.00000000	         -0.00000000	          0.00000000	          0.00000000	         -0.00000000	         -0.24094008	         -1.01427018	         -0.07159576	         -0.01538237	          0.00000000	         -0.00170815	          0.00000000	          0.00000000	          0.00000000	          0.00000000	          0.03900390	          0.00000000	
          2.09000000	          0.00000000	          0.00000000	         -0.00000000	          0.00000000	          0.00000000	         -0.00000000	         -0.13704792	         -0.57970018	         -0.04657602	         -0.01214552	          0.00000000	         -0.00135890	          0.00000000	          0.00000000	          0.00000000	          0.00000000	          0.01995505	          0.00000000	
          2.09500000	          0.00000000	          0.00000000	         -0.00000000	         -0.00000000	          0.00000000	         -0.00000000	         -0.05958505	         -0.25517159	         -0.02684775	         -0.00910923	          0.00000000	         -0.00102746	          0.00000000	          0.00000000	          0.00000000	          0.00000000	          0.00616119	          0.00000000	
          2.10000000	          0.00000000	          0.00000000	         -0.00000000	         -0.00000000	          0.00000000	          0.00000000	         -0.00519716	         -0.02687670	         -0.01207306	         -0.00644169	          0.00000000	         -0.00073365	          0.00000000	          0.00000000	          0.00000000	          0.00000000	         -0.00317182	          0.00000000	
          2.10500000	          0.00000000	          0.00000000	         -0.00000000	         -0.00000000	          0.00000000	          0.00000000	          0.03009178	          0.12165001	         -0.00164350	         -0.00422158	          0.00000000	         -0.00048722	          0.00000000	          0.00000000	          0.00000000	          0.00000000	         -0.00890605	          0.00000000	
